<?xml version="1.0" encoding="utf-8"?>
<!-- Generator: Adobe Illustrator 16.0.0, SVG Export Plug-In . SVG Version: 6.00 Build 0)  -->
<!DOCTYPE svg PUBLIC "-//W3C//DTD SVG 1.1//EN" "http://www.w3.org/Graphics/SVG/1.1/DTD/svg11.dtd">
<svg version="1.1" id="Layer_1" xmlns="http://www.w3.org/2000/svg" xmlns:xlink="http://www.w3.org/1999/xlink" x="0px" y="0px"
	 width="430px" height="500px" viewBox="0 0 430 500" enable-background="new 0 0 430 500" xml:space="preserve">
<path fill="#FFFFFF" d="M414.285,121.963l-43.027-7.004c-0.83-4.505-3.164-14.508-4.167-20.345
	c-0.834-5.335-1.503-14.342-2.338-19.843l21.512-21.346l-23.515-8.17l-9.837,9.171c-6.335-12.005-4.334-41.022-4-47.524h-10.506
	c-0.333,3.169-1.001,30.182,0.832,38.353c3.005,14.008,12.676,19.512,17.177,28.85c2.668,5.337,5.17,11.674,6.505,20.345
	c1.165,7.169,0.667,14.676,0.335,19.343l-35.353-5.837l-8.505,3.167l-0.837,21.012l17.345,2.833
	c-3.002,5.169-9.334,12.174-15.341,17.343c-4.669,4.003-12.84,6.003-14.01,5.669c-1.001-0.166-10.504-11.006-12.67-14.342
	c-1.17-2-1.17-4.502-1.003-7.004c1.499-18.844,5.004-30.85,5.5-32.685c0,0-1.831-1.167-2.497-1.167
	c-1.17,2.168-6.006,10.838-9.342,14.507c-2,2.336-14.34,13.341-21.844,20.011c-3.5-1.5-3.832-3.669-2.831-6.502
	c1.164-3.169,4.167-8.504,6.839-13.007c4.499-7.837,11.336-18.008,12.002-19.178c-0.666-0.668-3.001-1.167-3.001-1.167
	c-2.171,1.834-9.001,10.507-13.007,16.841c-2.334,3.669-9.173,15.843-9.668,17.175c-2.173,0-2.505-3.666-2.001-6.336
	c0.83-6.337,7.505-29.683,8.172-31.686l-3.171-0.833c-2.171,5.001-8.839,27.18-10.839,35.187c-1.332-0.168-4.004-2.168-5.006-3.17
	c-1.002-1.001-1.002-2.003-0.832-3.834c0.168-2.003,3.668-27.016,5.84-31.184c1.998-4.002,11-12.339,19.009-21.511
	c8.17-9.004,15.506-18.51,17.505-21.012c1.003-1.5,1.003-2.502,1.003-4.168c0-7.17-2.668-33.851-3.002-36.02h-8.17
	c0.332,4.336,4.17,22.844,4.672,27.682c0.496,3.335-0.335,6.505-0.836,8.006c-1.504,5.001-7.504,14.841-14.009,21.343
	c-5.999,6.003-17.506,14.009-19.84,16.174c-2.338,2.171-5.008,6.003-6.172,9.34c-0.836,2.168-1.332,6.502-1.998,8.171
	c-5.838,0.333-24.353-2.836-26.854-2.836c-2.333,2.502-14.34,18.345-15.842,19.344c2.001,0.334,39.855,5.671,42.357,6.336
	c0,6.671,4.166,11.508,11.668,12.342c0.17,0.833,8.172,6.002,12.847,9.004c-9.675,8.839-34.188,32.017-34.188,32.017
	c1.668,0.501,26.686,5.504,26.686,5.504c2.164-1.837,31.85-29.683,34.517-32.017c2.666,2.499,15.177,13.004,18.007,14.841
	c1.171,0.668,3.007,2.502,4.673,2.667c2.496,0.168,10.005-2.667,11.669-3.667h0.336c1.333,2.668,3.503,6.168,4.338,6.836
	c1.333,0.835,2.335,1.337,4.001,0.667c4.504-1.666,12.342-8.336,17.841-12.17c5.005-3.503,16.843-11.675,21.349-16.343l31.018,5.169
	L414.285,121.963L414.285,121.963z M318.399,312.9v-63.704c0-10.504-9.008-13.673-12.009-13.673h-12.505
	c-0.668,0-1.503-0.163-1.503-1.667v-43.691h-1.17l-1.333,1.333v-37.352c-1.332-1.167-2.496-2.003-3.001-2.667v42.687l-14.506,12.676
	v28.684h-8.837c-0.668,0-1.505-0.163-1.505-1.666v-43.692h-1l-12.172,11.008v-18.513c-0.836-0.333-1.838-0.496-3.002-0.667v21.846
	l-3.336,3.001V322.74h24.013v-1.332c-1.169-0.333-4-5.006-4.505-8.838v-59.035c0-1.331,0.836-1.497,1.504-1.497h3.998
	c0.334,0,0.668,0.162,1.003-1.001c0.502-1.338,2.336-6.171,3.836-10.008v81.709h24.346v-1.332c-1.164-0.336-3.833-5.008-4.333-8.84
	v-59.035c0-1.33,0.835-1.496,1.503-1.496h3.831c0.835,0,1.333,0.662,1.333,1.496v69.207h24.684v-1.332
	C322.4,321.07,318.399,317.07,318.399,312.9L318.399,312.9z M416.617,235.525h-9.335v-95.386l-3.007,4.834v90.552h-1.001
	c-1.498,1.501-3.667,4-5.002,5.168c-0.838,0.831-1.503,1.001-1.503-0.167v-5.001h-16.175v-89.55l-3.002-0.5v90.05h-1.169v87.211
	h24.686v-1.168c-2.668-1.832-4.34-5.668-4.34-9.172c0-0.832,0.168-22.515,0.168-51.863c1.504-1.665,3.169-3.163,4.336-4.333
	c1.168-1,1.998-0.831,1.998,0.501v22.677l17.678-18.508v-20.513C420.951,237.695,419.787,235.525,416.617,235.525L416.617,235.525z
	 M369.925,297.057c-1.497,4.504-4.5,8.17-11.505,8.17h-12.008c-0.668,0-2.168-0.83-2.168-2v-6.668
	c3.003-3.168,22.346-23.016,23.516-24.35c1.002-1.499,2.831-4.167,2.831-8.172v-22.676c0-4.334-2.831-5.837-6.505-5.837h-25.345
	c-1.665,0-3.335,0.163-4.667,0.334v-65.534c-1.17,0.662-2.171,1.333-3.169,1.832v64.537c-4.171,1.833-6.334,5.499-6.334,12.671
	v62.87c0,5.002,3.831,10.505,9.172,10.505h30.517c2.169,0,6.666-1,6.666-4.171v-21.51h-1.001V297.057L369.925,297.057z
	 M344.248,253.866c0-2,0.83-2.669,1.831-2.669h2.675c1.498,0,1.83,0.336,1.83,1.838v11.172c0,1.336-0.332,3.668-1.498,5.504
	c-0.835,1.333-3.17,3.336-4.836,4.83L344.248,253.866L344.248,253.866z M107.118,248.2v62.036c0,7.502-4.336,12.504-14.173,12.504
	H76.268c-9.671,0-14.174-5.002-14.174-12.504V248.2c0-7.503,4.505-12.675,14.174-12.675h16.676
	C102.781,235.525,107.118,240.693,107.118,248.2L107.118,248.2z M87.94,253.866c0-1.171-0.5-1.832-1.5-1.832h-3.501
	c-1.167,0-1.666,0.661-1.666,1.832v50.69c0,1.004,0.499,1.838,1.666,1.838h3.501c1.001,0,1.5-0.834,1.5-1.838V253.866z
	 M101.614,192.001v0.831L83.606,213.18H28.575c-3.002,0-4.334,2-4.334,4.499v82.545c0,1.332,0.166,2.332,1.667,2.332h7.504
	c1.001,0,2.168-0.16,2.168-1.834v-56.528c0-2.171-2.5-7.34-5.505-7.503v-1.171h24.181c1.5,0,1.668,0.668,1.668,2.171v91.216h-1.001
	c-1.669-5.34-5.001-6.172-9.004-6.172h-25.85c-3.834,0-18.008-4.504-18.008-16.676v-93.884c0-13.845,7.004-20.179,19.845-20.179
	L101.614,192.001L101.614,192.001z M214.673,281.218l-4,4c-0.666,0.835-1.167,1.503-1.167,2.503v16.838
	c0,1.002,0.502,1.502,1.167,1.502h4c0.669,0,1.503-0.168,1.503-1.502v-23.181C216.176,280.55,215.509,280.38,214.673,281.218
	L214.673,281.218z M189.995,310.234V289.55c0-1.002,0.165-6.333,2.499-9.335c2.501-3.002,22.68-20.847,23.68-22.015v-3.832
	c0-0.668-0.502-2.335-2-2.335h-10.005c-3.001,0-7.338,1.832-10.174,6.167h-1.167c1.335-2.832,5.337-13.508,6.17-15.343
	c1.333-3.831,5.339-7.334,12.174-7.334h15.008c5.34,0,9.84,6.668,9.84,11.007v66.37c0,3.002,1.668,7.668,2.67,8.505v1.331h-17.513
	c-1.163-0.5-4.334-7.502-4.506-8.504c-0.162-0.836-0.666-1.332-1.163-0.502c-0.501,0.668-3.335,7.838-4.836,9.006h-9.503
	C194.164,322.736,189.995,316.568,189.995,310.234L189.995,310.234z M132.464,208.678l23.679-20.848h0.834v118.398
	c0,5.836,0,12.176,4.501,15.34v1.168H143.47c-0.833-0.668-3.834-5.34-4.502-7.836c-0.667-2.334-0.833-0.834-1.335-0.334
	c-0.5,0.668-3.668,6-4.167,6.838c-0.668,1.002-1.167,1.498-2.169,1.498h-6.002c-7.838,0-12.508-6-12.508-16.674v-57.032
	c0-10.504,8.171-13.673,11.341-13.673h12.507c0.668,0,1.501-0.163,1.501-1.667V215.85c0-4-2.003-6.171-5.672-6.171V208.678
	L132.464,208.678z M136.632,252.034h-3.834c-0.833,0-1.333,0.661-1.333,1.497v51.025c0,1.004,0.5,1.504,1.333,1.504h3.834
	c0.668,0,1.501-0.168,1.501-1.504v-51.025C138.136,252.199,137.3,252.034,136.632,252.034z M132.298,133.301
	c-1.001,1.501-3.835,4.337-5.504,5.67V119.96c0-1.001,0.502-1.834,1.501-1.834h4.168c0.665,0,1.333,0.499,1.333,1.669v9.172
	C133.796,130.134,133.297,131.8,132.298,133.301L132.298,133.301z M146.472,101.449h-25.013c-9.671,0-14.008,4.836-14.008,12.34
	v63.536c0,5.001,3.666,10.505,9.004,10.505h30.182c2.168,0,6.505-1.001,6.505-4.17v-21.344h-0.836
	c-1.501,4.336-4.502,8.171-11.338,8.171h-11.84c-0.833,0-2.336-1.001-2.336-2v-6.673c3.169-3.002,22.18-22.844,23.18-24.179
	c1.167-1.501,3.001-4.169,3.001-8.006v-22.51C152.974,102.785,150.139,101.449,146.472,101.449L146.472,101.449z M190.662,228.522
	c1.167-1.169,17.677-16.843,17.677-16.843v-8.505c0-6.504-3.168-10.505-9.004-11.505v-72.542h-3.001v72.206h-19.678
	c-6.002,0-12.841,3.165-12.841,13.173c0,41.358,0.333,118.23,0.333,118.23h22.18v-1.168c-3.001-3.668-3.335-5.668-3.335-9.172
	v-59.197c0-0.504,0.166-1.165,1.001-1.165h6.172c0.832,0,1.332-0.339,1.666-1.169c0.333-1.002,5.338-13.506,5.503-14.008
	c0.5-1.001,0.166-1.332-1.001-1.332H184.16c-0.667,0-1.167-0.334-1.167-1.504v-24.679c0-1.001,0.499-1.169,1.335-1.169h4.337
	c0.833,0,1.333,0.168,1.333,1.333v19.015L190.662,228.522L190.662,228.522L190.662,228.522z M101.281,177.325V113.79
	c0-7.504-4.337-12.34-14.01-12.34H74.933V58.427H2.059v27.848h0.833c1.167-5.837,7.004-10.839,12.005-10.839
	c2,0,7.17,0.167,7.17,0.167v101.72c0,6.172-4.836,9.336-6.839,9.837v0.667h30.684v-0.667c-1.669-0.83-4.836-3.335-4.836-9.837
	V75.434h6.836c3.169,0,8.005,2.667,8.005,8.005v104.388h22.347v-0.831c-3.001-3.502-3.335-6.005-3.335-9.509v-57.862v0.166
	c0-1.167,0.5-1.668,1.332-1.668h4.003c1.001,0,1.5,0.833,1.5,1.834v67.87h23.013v-0.667
	C103.614,186.165,101.281,182.163,101.281,177.325L101.281,177.325z M328.904,163.152c-0.502-1.335-1.001-3.504-0.668-7.338
	c5.669-3.169,10.171-3.169,12.506,1.167c-4.171,3.17-8.008,5.837-9.837,7.004C330.24,164.318,329.401,164.318,328.904,163.152
	L328.904,163.152z M345.412,153.144c-1-1.834-3.498-3.834-7.169-3.834c-3.002,0-6.505,1.333-9.173,2.667
	c2-4.003,4.339-9.172,10.008-16.508l20.012,3.169C355.084,145.141,349.413,149.812,345.412,153.144L345.412,153.144z
	 M50.913,457.678H14.868v-0.38c5.239-2.326,7.859-7.107,7.859-14.345V340.566c-0.553-7.265-2.123-11.662-6.369-13.129v-0.379h26.695
	v115.971c0,3.44,0.856,6.554,2.574,9.335c1.535,2.53,3.297,4.176,5.285,4.934L50.913,457.678L50.913,457.678z M98.948,440.373
	c0,5.463-1.378,9.879-4.133,13.243c-2.755,3.365-6.257,5.147-10.501,5.351c-4.834,0.254-8.469-1.795-10.909-6.146v19.276
	L50.98,493.122v-1.366c2.484-2.684,3.727-6.072,3.727-10.172V394c0-4.048-1.311-6.122-3.93-6.225v-0.685l22.629-19.959v8.651
	c3.208-4.352,7.725-6.527,13.551-6.527c7.995,0,11.992,5.87,11.992,17.607L98.948,440.373L98.948,440.373z M79.436,431.113v-38.102
	c0-1.467-0.656-2.201-1.965-2.201h-0.88c-1.31,0-1.965,0.734-1.965,2.201v38.102c0,1.469,0.655,2.2,1.965,2.2h0.88
	C78.78,433.312,79.436,432.582,79.436,431.113z M146.443,443.409c0,5.159-1.536,8.955-4.607,11.386
	c-3.479,2.73-9.102,4.098-16.871,4.098c-6.278,0-10.908-0.785-13.889-2.353c-4.698-2.38-7.046-6.957-7.046-13.738v-20.721
	l0.677,0.075c0.226,3.747,1.445,7.135,3.66,10.172c2.482,3.391,5.441,5.161,8.875,5.312c2.936,0.151,5.262-0.253,6.979-1.214
	c2.032-1.164,3.025-3.086,2.981-5.77c-0.091-2.529-1.084-4.705-2.981-6.527c-0.316-0.252-2.236-1.593-5.759-4.021
	c-5.285-3.593-8.244-5.692-8.876-6.3c-3.749-3.44-5.623-7.338-5.623-11.688v-16.091c0-11.385,7.317-17.125,21.952-17.229
	c13.686-0.05,20.529,5.389,20.529,16.319v14.571h-0.678c-1.31-6.273-5.308-9.563-11.992-9.865c-5.692-0.256-8.561,2.099-8.605,7.058
	c0,2.782,1.83,5.414,5.488,7.895c6.323,4.301,9.733,6.704,10.23,7.21c3.704,3.49,5.556,7.893,5.556,13.206V443.409L146.443,443.409z
	 M202.745,457.678h-18.497c-1.083,0-2.065-0.708-2.947-2.125c-0.881-1.416-1.276-2.909-1.186-4.479
	c-3.884,4.96-8.582,7.413-14.091,7.36c-8.267-0.051-12.399-4.525-12.399-13.433v-51.915c0-3.187-1.311-5.337-3.93-6.448v-0.609
	l21.342-19.051v68.31c0,4.3,1.512,6.45,4.539,6.45c3.026,0,4.539-2.174,4.539-6.526v-41.819c0-3.137-1.265-4.933-3.793-5.389v-0.912
	l22.426-20.111v82.88c0,4.554,1.332,6.883,3.997,6.982V457.678L202.745,457.678z M281.744,457.678h-21.613v-65.119
	c0-4.252-1.354-6.375-4.064-6.375c-2.621,0-3.932,2.176-3.932,6.526v57.909c0,3.187,1.311,5.338,3.932,6.451v0.606h-21.409v-65.12
	c0-4.25-1.354-6.375-4.065-6.375c-2.619,0-3.931,2.178-3.931,6.527v58.668c0,3.137,1.241,4.934,3.728,5.389v0.911h-22.427v-63.829
	c0-3.947-1.309-6.021-3.93-6.226v-0.531l22.629-20.112v8.652c3.614-4.199,8.04-6.299,13.28-6.299
	c4.697,0.052,8.037,1.619,10.025,4.706c4.924-3.138,10.072-4.706,15.448-4.706c3.703,0.052,6.663,1.266,8.875,3.645
	c2.349,2.578,3.522,6.069,3.522,10.474v67.169c0,3.187,1.311,5.338,3.932,6.451V457.678z"/>
</svg>
